# xmcd
#
# Track frame offsets: 
#        150
#        18378
#        29300
#        45520
#        65877
#        87512
#        111929
#        130157
#        155851
#        171538
#        191388
#        205071
#
# Disc length: 2879 seconds
#
# Revision: 0
# Processed by: cddbd v1.5.2PL0 Copyright (c) Steve Scherf et al.
# Submitted via: ExactAudioCopy v1.3
#
DISCID=ab0b3d0c
DTITLE=The Smokin' Polecats - My Little Baby
DYEAR=2019
DGENRE=Electric Blues, Swihg
TTITLE0=Darlin'
TTITLE1=My Rough And Ready Man
TTITLE2=It Better Get Better
TTITLE3=My Little Baby
TTITLE4=I Don't Hurt Anymore
TTITLE5=Mama, He Treats Your Daughter Mean
TTITLE6=It Won't Be Long
TTITLE7=Mojo Boogie
TTITLE8=I Believe I'm In Love With You
TTITLE9=You Got What It Takes
TTITLE10=So Long Baby, Goodbye
TTITLE11=Jumpin' Bad
EXTD=
EXTT0=
EXTT1=
EXTT2=
EXTT3=
EXTT4=
EXTT5=
EXTT6=
EXTT7=
EXTT8=
EXTT9=
EXTT10=
EXTT11=
PLAYORDER=
